<?xml version="1.0" encoding="UTF-8" standalone="no"?>
<!-- Created with Inkscape (http://www.inkscape.org/) -->

<svg
   xmlns:dc="http://purl.org/dc/elements/1.1/"
   xmlns:cc="http://creativecommons.org/ns#"
   xmlns:rdf="http://www.w3.org/1999/02/22-rdf-syntax-ns#"
   xmlns:svg="http://www.w3.org/2000/svg"
   xmlns="http://www.w3.org/2000/svg"
   xmlns:xlink="http://www.w3.org/1999/xlink"
   version="1.1"
   width="402.06235"
   height="402.06235"
   id="svg2">
  <defs
     id="defs4">
    <linearGradient
       id="linearGradient4476">
      <stop
         id="stop4478"
         style="stop-color:#c6c6c6;stop-opacity:1"
         offset="0" />
      <stop
         id="stop4480"
         style="stop-color:#d3d7cf;stop-opacity:0"
         offset="1" />
    </linearGradient>
    <linearGradient
       x1="237.38585"
       y1="268.47723"
       x2="237.38585"
       y2="345.94537"
       id="linearGradient4482"
       xlink:href="#linearGradient4476"
       gradientUnits="userSpaceOnUse"
       gradientTransform="translate(-3418.1904,-57.142857)" />
    <clipPath
       id="SVGID_6_-8">
      <polygon
         points="402.768,372.998 334.937,412.15 267.109,372.998 267.109,294.669 334.937,255.507 402.768,294.669 "
         id="use2236-5" />
    </clipPath>
    <clipPath
       id="SVGID_2_-0">
      <polygon
         points="402.708,373.046 334.986,412.143 267.273,373.046 267.273,294.838 334.986,255.75 402.708,294.838 "
         id="use242-5" />
    </clipPath>
    <linearGradient
       x1="253.0117"
       y1="213.3652"
       x2="253.0117"
       y2="326.94971"
       id="SVGID_9_-7"
       gradientUnits="userSpaceOnUse">
      <stop
         id="stop10707-8"
         style="stop-color:#ffffff;stop-opacity:0.25"
         offset="0" />
      <stop
         id="stop10709-7"
         style="stop-color:#ffffff;stop-opacity:1"
         offset="1" />
    </linearGradient>
    <linearGradient
       x1="253.0107"
       y1="305.1553"
       x2="253.0107"
       y2="208.97121"
       id="SVGID_10_-0"
       gradientUnits="userSpaceOnUse">
      <stop
         id="stop10720-4"
         style="stop-color:#010101;stop-opacity:1"
         offset="0" />
      <stop
         id="stop10722-7"
         style="stop-color:#050505;stop-opacity:0.89109999"
         offset="0.1815" />
      <stop
         id="stop10724-8"
         style="stop-color:#111111;stop-opacity:0.80860001"
         offset="0.31889999" />
      <stop
         id="stop10726-2"
         style="stop-color:#201f1f;stop-opacity:0.73479998"
         offset="0.442" />
      <stop
         id="stop10728-4"
         style="stop-color:#333131;stop-opacity:0.66600001"
         offset="0.55659997" />
      <stop
         id="stop10730-1"
         style="stop-color:#4b4848;stop-opacity:0.60079998"
         offset="0.66540003" />
      <stop
         id="stop10732-1"
         style="stop-color:#6b6868;stop-opacity:0.5381"
         offset="0.76980001" />
      <stop
         id="stop10734-6"
         style="stop-color:#9a9797;stop-opacity:0.47760001"
         offset="0.8707" />
      <stop
         id="stop10736-6"
         style="stop-color:#dbd9d9;stop-opacity:0.42019999"
         offset="0.96640003" />
      <stop
         id="stop10738-6"
         style="stop-color:#ffffff;stop-opacity:0.40000001"
         offset="1" />
    </linearGradient>
    <clipPath
       id="SVGID_2_-0-4">
      <polygon
         points="402.708,373.046 334.986,412.143 267.273,373.046 267.273,294.838 334.986,255.75 402.708,294.838 "
         id="use242-5-8" />
    </clipPath>
    <clipPath
       id="SVGID_6_-8-7">
      <polygon
         points="402.768,372.998 334.937,412.15 267.109,372.998 267.109,294.669 334.937,255.507 402.768,294.669 "
         id="use2236-5-6" />
    </clipPath>
    <linearGradient
       x1="253.0117"
       y1="213.3652"
       x2="253.0117"
       y2="326.94971"
       id="SVGID_9_-7-3"
       gradientUnits="userSpaceOnUse">
      <stop
         id="stop10707-8-1"
         style="stop-color:#ffffff;stop-opacity:0.25"
         offset="0" />
      <stop
         id="stop10709-7-1"
         style="stop-color:#ffffff;stop-opacity:1"
         offset="1" />
    </linearGradient>
    <linearGradient
       x1="253.0107"
       y1="305.1553"
       x2="253.0107"
       y2="208.97121"
       id="SVGID_10_-0-1"
       gradientUnits="userSpaceOnUse">
      <stop
         id="stop10720-4-6"
         style="stop-color:#010101;stop-opacity:1"
         offset="0" />
      <stop
         id="stop10722-7-0"
         style="stop-color:#050505;stop-opacity:0.89109999"
         offset="0.1815" />
      <stop
         id="stop10724-8-5"
         style="stop-color:#111111;stop-opacity:0.80860001"
         offset="0.31889999" />
      <stop
         id="stop10726-2-3"
         style="stop-color:#201f1f;stop-opacity:0.73479998"
         offset="0.442" />
      <stop
         id="stop10728-4-7"
         style="stop-color:#333131;stop-opacity:0.66600001"
         offset="0.55659997" />
      <stop
         id="stop10730-1-2"
         style="stop-color:#4b4848;stop-opacity:0.60079998"
         offset="0.66540003" />
      <stop
         id="stop10732-1-1"
         style="stop-color:#6b6868;stop-opacity:0.5381"
         offset="0.76980001" />
      <stop
         id="stop10734-6-4"
         style="stop-color:#9a9797;stop-opacity:0.47760001"
         offset="0.8707" />
      <stop
         id="stop10736-6-7"
         style="stop-color:#dbd9d9;stop-opacity:0.42019999"
         offset="0.96640003" />
      <stop
         id="stop10738-6-3"
         style="stop-color:#ffffff;stop-opacity:0.40000001"
         offset="1" />
    </linearGradient>
    <linearGradient
       x1="253.0117"
       y1="213.3652"
       x2="253.0117"
       y2="326.94971"
       id="SVGID_9_-7-3-1"
       gradientUnits="userSpaceOnUse">
      <stop
         id="stop10707-8-1-6"
         style="stop-color:#ffffff;stop-opacity:0.25"
         offset="0" />
      <stop
         id="stop10709-7-1-5"
         style="stop-color:#ffffff;stop-opacity:1"
         offset="1" />
    </linearGradient>
    <linearGradient
       x1="253.0107"
       y1="305.1553"
       x2="253.0107"
       y2="208.97121"
       id="SVGID_10_-0-1-9"
       gradientUnits="userSpaceOnUse">
      <stop
         id="stop10720-4-6-3"
         style="stop-color:#010101;stop-opacity:1"
         offset="0" />
      <stop
         id="stop10722-7-0-8"
         style="stop-color:#050505;stop-opacity:0.89109999"
         offset="0.1815" />
      <stop
         id="stop10724-8-5-8"
         style="stop-color:#111111;stop-opacity:0.80860001"
         offset="0.31889999" />
      <stop
         id="stop10726-2-3-2"
         style="stop-color:#201f1f;stop-opacity:0.73479998"
         offset="0.442" />
      <stop
         id="stop10728-4-7-6"
         style="stop-color:#333131;stop-opacity:0.66600001"
         offset="0.55659997" />
      <stop
         id="stop10730-1-2-2"
         style="stop-color:#4b4848;stop-opacity:0.60079998"
         offset="0.66540003" />
      <stop
         id="stop10732-1-1-3"
         style="stop-color:#6b6868;stop-opacity:0.5381"
         offset="0.76980001" />
      <stop
         id="stop10734-6-4-7"
         style="stop-color:#9a9797;stop-opacity:0.47760001"
         offset="0.8707" />
      <stop
         id="stop10736-6-7-4"
         style="stop-color:#dbd9d9;stop-opacity:0.42019999"
         offset="0.96640003" />
      <stop
         id="stop10738-6-3-4"
         style="stop-color:#ffffff;stop-opacity:0.40000001"
         offset="1" />
    </linearGradient>
    <clipPath
       id="SVGID_6_-8-7-6">
      <polygon
         points="402.768,372.998 334.937,412.15 267.109,372.998 267.109,294.669 334.937,255.507 402.768,294.669 "
         id="use2236-5-6-5" />
    </clipPath>
    <clipPath
       id="SVGID_2_-0-4-4">
      <polygon
         points="402.708,373.046 334.986,412.143 267.273,373.046 267.273,294.838 334.986,255.75 402.708,294.838 "
         id="use242-5-8-1" />
    </clipPath>
    <clipPath
       id="SVGID_6_-8-7-6-4">
      <polygon
         points="402.768,294.669 402.768,372.998 334.937,412.15 267.109,372.998 267.109,294.669 334.937,255.507 "
         id="use2236-5-6-5-0" />
    </clipPath>
    <clipPath
       id="SVGID_2_-0-4-4-4">
      <polygon
         points="402.708,294.838 402.708,373.046 334.986,412.143 267.273,373.046 267.273,294.838 334.986,255.75 "
         id="use242-5-8-1-8" />
    </clipPath>
    <clipPath
       id="SVGID_6_-8-7-6-4-9">
      <polygon
         points="402.768,294.669 402.768,372.998 334.937,412.15 267.109,372.998 267.109,294.669 334.937,255.507 "
         id="use2236-5-6-5-0-2" />
    </clipPath>
    <clipPath
       id="SVGID_2_-0-4-4-4-2">
      <polygon
         points="402.708,294.838 402.708,373.046 334.986,412.143 267.273,373.046 267.273,294.838 334.986,255.75 "
         id="use242-5-8-1-8-8" />
    </clipPath>
    <linearGradient
       x1="237.38585"
       y1="268.47723"
       x2="237.38585"
       y2="345.94537"
       id="linearGradient4482-6"
       xlink:href="#linearGradient4476-4"
       gradientUnits="userSpaceOnUse"
       gradientTransform="translate(-3418.1904,-57.142857)" />
    <linearGradient
       id="linearGradient4476-4">
      <stop
         id="stop4478-5"
         style="stop-color:#c6c6c6;stop-opacity:1"
         offset="0" />
      <stop
         id="stop4480-7"
         style="stop-color:#d3d7cf;stop-opacity:0"
         offset="1" />
    </linearGradient>
    <linearGradient
       x1="1048.5383"
       y1="288.84042"
       x2="1048.5383"
       y2="450.62283"
       id="linearGradient9180-5"
       xlink:href="#linearGradient9174-7"
       gradientUnits="userSpaceOnUse"
       gradientTransform="matrix(1.0707187,0,0,1.0707187,-3860.3418,-784.40361)" />
    <linearGradient
       id="linearGradient9174-7">
      <stop
         id="stop9176-1"
         style="stop-color:#babdb6;stop-opacity:1"
         offset="0" />
      <stop
         id="stop9178-7"
         style="stop-color:#ffffff;stop-opacity:1"
         offset="1" />
    </linearGradient>
  </defs>
  <metadata
     id="metadata7">
    <rdf:RDF>
      <cc:Work
         rdf:about="">
        <dc:format>image/svg+xml</dc:format>
        <dc:type
           rdf:resource="http://purl.org/dc/dcmitype/StillImage" />
        <dc:title></dc:title>
      </cc:Work>
    </rdf:RDF>
  </metadata>
  <g
     transform="translate(2140.8239,348.50137)"
     id="layer1">
    <path
       d="m -2337.1428,-500.13385 a 87.142853,87.142853 0 1 1 -174.2857,0 87.142853,87.142853 0 1 1 174.2857,0 z"
       transform="matrix(2.077407,0,0,2.077407,3096.4352,891.51136)"
       id="path8961-8-3-0-1-6-2-0-0-6-3"
       style="color:#000000;fill:#8c8c8c;fill-opacity:0.25416667;fill-rule:nonzero;stroke:none;stroke-width:1;marker:none;visibility:visible;display:inline;overflow:visible;enable-background:accumulate" />
    <path
       d="m -2337.1428,-500.13385 a 87.142853,87.142853 0 1 1 -174.2857,0 87.142853,87.142853 0 1 1 174.2857,0 z"
       transform="matrix(1.7987185,0,0,1.7987185,2425.1003,750.70122)"
       id="path8961-8-3-0-1-6-7-4-1-9-6"
       style="color:#000000;fill:#1594e8;fill-opacity:1;fill-rule:nonzero;stroke:none;stroke-width:1;marker:none;visibility:visible;display:inline;overflow:visible;enable-background:accumulate" />
    <path
       d="m -2337.1428,-500.13385 a 87.142853,87.142853 0 1 1 -174.2857,0 87.142853,87.142853 0 1 1 174.2857,0 z"
       transform="matrix(1.7987185,0,0,1.7987185,2416.0794,743.52953)"
       id="path8961-8-3-0-1-6-9-1-3-4"
       style="color:#000000;fill:#4eb3f7;fill-opacity:1;fill-rule:nonzero;stroke:none;stroke-width:1;marker:none;visibility:visible;display:inline;overflow:visible;enable-background:accumulate" />
    <path
       d="m -1972.6902,-297.91305 c -4.6398,1.54819 -9.2524,3.13333 -13.7238,5.02452 -5.6395,2.38532 -11.08,5.04655 -16.4233,7.94924 -5.3434,2.90268 -10.583,6.06064 -15.5985,9.44909 -5.0156,3.38845 -9.8175,7.03134 -14.4738,10.87395 -4.656,3.84261 -9.1585,7.88365 -13.4236,12.14883 -4.2651,4.26518 -8.3063,8.76756 -12.1488,13.42371 -3.8425,4.65615 -7.4856,9.45807 -10.8738,14.47361 -0.2328,0.34314 -0.4454,0.70517 -0.6751,1.0499 l 11.9237,16.04845 c -4.1043,0.55867 -8.2885,2.3458 -11.9988,5.2495 -9.894,7.74353 -12.7531,20.94703 -6.3743,29.54716 6.3789,8.60027 19.5781,9.3184 29.4721,1.57485 3.7103,-2.90368 6.4105,-6.58219 8.0243,-10.499 l 21.5231,29.02221 34.7215,-27.14739 c -4.716,-0.61626 -8.9737,-2.87458 -11.8488,-6.74935 -6.3791,-8.60012 -3.5198,-21.8036 6.3742,-29.54715 9.8943,-7.74353 23.0186,-7.10027 29.3972,1.49985 2.8749,3.87541 3.8987,8.73915 3.2248,13.5737 l 34.6467,-27.14739 -20.548,-27.74733 c -1.5861,2.60307 -3.706,5.01957 -6.2994,7.04932 -9.8943,7.74353 -23.0935,7.10044 -29.4721,-1.49986 -6.3791,-8.60012 -3.52,-21.8786 6.3743,-29.62215 2.5937,-2.02972 5.3848,-3.46975 8.2492,-4.34958 l -10.049,-13.64869 z"
       id="path10247-6-2-7-6-4-3"
       style="color:#000000;fill:#f0f9ff;fill-opacity:1;fill-rule:nonzero;stroke:none;stroke-width:0.5;marker:none;visibility:visible;display:inline;overflow:visible;enable-background:accumulate" />
    <path
       d="m -1975.8058,-302.11485 c -4.6398,1.54819 -9.2474,3.10881 -13.7188,5 -5.6395,2.38532 -11.0629,5.06606 -16.4062,7.96875 -5.3434,2.90268 -10.5783,6.04905 -15.5938,9.4375 -5.0156,3.38845 -9.8437,7.03239 -14.5,10.875 -4.656,3.84261 -9.1411,7.89107 -13.4062,12.15625 -4.2651,4.26518 -8.3138,8.78135 -12.1563,13.4375 -3.8425,4.65615 -7.4868,9.45321 -10.875,14.46875 -0.2328,0.34314 -0.4578,0.68652 -0.6875,1.03125 l 3.0938,4.1875 c 0.2297,-0.34473 0.4547,-0.71936 0.6875,-1.0625 3.3882,-5.01554 7.0325,-9.8126 10.875,-14.46875 3.8425,-4.65615 7.8911,-9.14107 12.1562,-13.40625 4.2651,-4.26518 8.7503,-8.31364 13.4063,-12.15625 4.6563,-3.84261 9.4531,-7.48655 14.4687,-10.875 5.0155,-3.38845 10.2816,-6.53482 15.625,-9.4375 5.3433,-2.90269 10.7668,-5.58343 16.4063,-7.96875 4.4623,-1.88738 9.0571,-3.48603 13.6875,-5.03125 l -3.0625,-4.15625 z m 31.2187,42.0625 c -1.5861,2.60307 -3.7191,5.03275 -6.3125,7.0625 -9.0932,7.11657 -20.965,7.12343 -27.7812,0.40625 0.4055,0.77862 0.8728,1.53083 1.4062,2.25 6.3786,8.6003 19.5745,9.24353 29.4688,1.5 2.5934,-2.02975 4.7264,-4.42818 6.3125,-7.03125 l -3.0938,-4.1875 z m -116.6562,48.375 c -4.0945,0.56337 -8.2677,2.35351 -11.9688,5.25 -9.894,7.74353 -12.7538,20.93112 -6.375,29.53125 0.5165,0.69633 1.087,1.34482 1.6875,1.9375 -4.4437,-8.52199 -1.2854,-20.18526 7.7813,-27.28125 3.7103,-2.9037 7.8957,-4.69133 12,-5.25 l -3.0938,-4.1875 -0.031,0 z"
       id="path10247-6-2-7-6-0-4"
       style="color:#000000;fill:#1594e8;fill-opacity:1;fill-rule:nonzero;stroke:none;stroke-width:0.5;marker:none;visibility:visible;display:inline;overflow:visible;enable-background:accumulate" />
  </g>
  <style
     type="text/css"
     id="style4344" />
  <style
     type="text/css"
     id="style2442" />
</svg>
